<!DOCTYPE svg PUBLIC "-//W3C//DTD SVG 20010904//EN" "http://www.w3.org/TR/2001/REC-SVG-20010904/DTD/svg10.dtd">
<svg version="1.0" xmlns="http://www.w3.org/2000/svg" width="500px" height="500px" viewBox="0 0 5000 5000" preserveAspectRatio="xMidYMid meet">
<g id="layer1" fill="#a7a7a7" stroke="none">
 <path d="M1668 3563 c6 -2 18 -2 25 0 6 3 1 5 -13 5 -14 0 -19 -2 -12 -5z"/>
 <path d="M932 3370 c0 -14 2 -19 5 -12 2 6 2 18 0 25 -3 6 -5 1 -5 -13z"/>
 <path d="M2292 3235 c0 -16 2 -22 5 -12 2 9 2 23 0 30 -3 6 -5 -1 -5 -18z"/>
 </g>
<g id="layer2" fill="#383838" stroke="none">
 <path d="M1615 3560 c-208 -21 -545 -90 -648 -133 -34 -15 -34 -15 -30 -68 34 -466 161 -864 349 -1096 101 -125 201 -195 337 -238 202 -64 476 -7 846 175 218 107 398 214 651 385 171 115 406 285 522 378 l37 29 48 -35 c70 -51 162 -151 223 -242 l54 -80 14 45 c30 101 54 250 54 340 1 112 -49 381 -70 379 -4 0 -29 -33 -55 -73 -60 -92 -142 -183 -208 -232 -59 -43 -34 -48 -244 49 -426 197 -878 341 -1262 402 -117 19 -488 28 -618 15z m660 -79 c267 -47 563 -133 860 -248 165 -64 485 -204 485 -212 -1 -10 -344 -261 -510 -374 -418 -283 -784 -473 -1065 -553 -122 -35 -293 -43 -385 -19 -319 83 -550 464 -639 1055 -26 179 -29 240 -10 250 51 28 394 100 569 119 47 5 195 8 330 6 196 -2 269 -7 365 -24z m1730 -345 c9 -60 13 -130 10 -155 -12 -90 -27 -186 -32 -193 -2 -5 -30 25 -63 66 -32 40 -83 93 -114 117 -31 24 -56 47 -56 50 0 4 21 24 47 45 53 43 117 111 152 160 14 19 28 31 32 27 4 -5 15 -57 24 -117z"/>
 <path d="M2129 3406 c-164 -57 -256 -179 -247 -323 3 -43 6 -48 29 -51 25 -3 26 -1 32 67 6 78 30 131 79 178 37 36 129 81 182 90 32 5 36 2 62 -37 22 -33 28 -54 28 -94 0 -66 -23 -108 -90 -172 -54 -51 -54 -51 -36 -74 l18 -22 58 52 c58 54 98 117 111 178 11 52 -4 107 -46 172 -36 56 -41 60 -76 60 -21 0 -68 -11 -104 -24z"/>
 <path d="M1329 2909 c-11 -11 -18 -27 -15 -36 3 -8 6 -19 6 -24 0 -17 50 -30 71 -19 28 15 35 57 14 80 -23 26 -50 25 -76 -1z"/>
 </g>

</svg>